<svg width="332" height="363" viewBox="0 0 332 363" fill="none" xmlns="http://www.w3.org/2000/svg">
<path d="M147.272 0.912354C144.423 0.912354 142.523 2.72506 141.099 4.99094L1.48418 313.604C0.534419 315.87 0.0595398 319.495 0.0595398 322.214V358.921C0.0595398 361.187 1.95906 363 4.33345 363H327.726C330.1 363 332 361.187 332 358.921V322.214C332 319.948 331.525 315.87 330.575 313.604L190.961 4.99094C190.011 2.72506 187.637 0.912354 184.787 0.912354H146.322L147.272 0.912354ZM142.998 136.865H190.486V227.5H142.998V136.865ZM142.998 272.818H190.486V318.136H142.998V272.818Z" fill="#F9BB00"/>
</svg>
